# File generated by ImageToStl.com - Free Image and 3D model conversion tools

o obj1
v 119.5 105.1000061 6.19999981
v 119.5 105.1000061 18.39999962
v 130.5 105.1000061 6.19999981
v 130.5 105.1000061 18.39999962
v 130.5 99.1000061 18.39999962
v 130.5 99.1000061 6.19999981
v 130.57225037 99.09812927 18.39999962
v 130.57225037 99.09812927 6.19999981
v 130.64428711 99.09251404 18.39999962
v 130.64428711 99.09251404 6.19999981
v 130.71595764 99.08317566 6.19999981
v 130.71595764 99.08317566 18.39999962
v 130.78703308 99.07013702 18.39999962
v 130.78703308 99.07013702 6.19999981
v 130.85734558 99.05343628 6.19999981
v 130.85734558 99.05343628 18.39999962
v 130.92669678 99.03311157 6.19999981
v 130.92669678 99.03311157 18.39999962
v 130.99490356 99.00921631 18.39999962
v 130.99490356 99.00921631 6.19999981
v 131.06178284 98.98182678 18.39999962
v 131.06178284 98.98182678 6.19999981
v 131.12713623 98.95100403 18.39999962
v 131.12713623 98.95100403 6.19999981
v 131.19082642 98.9168396 18.39999962
v 131.19082642 98.9168396 6.19999981
v 131.25265503 98.87941742 18.39999962
v 131.25265503 98.87941742 6.19999981
v 131.31245422 98.8388443 18.39999962
v 131.31245422 98.8388443 6.19999981
v 131.37007141 98.79522705 6.19999981
v 131.37007141 98.79522705 18.39999962
v 131.425354 98.74868774 18.39999962
v 131.425354 98.74868774 6.19999981
v 131.47814941 98.69934082 18.39999962
v 131.47814941 98.69934082 6.19999981
v 131.52832031 98.64732361 18.39999962
v 131.52832031 98.64732361 6.19999981
v 131.57572937 98.59278107 6.19999981
v 131.57572937 98.59278107 18.39999962
v 131.62025452 98.53585052 18.39999962
v 131.62025452 98.53585052 6.19999981
v 131.66175842 98.4766922 18.39999962
v 131.66175842 98.4766922 6.19999981
v 131.70014954 98.41545868 18.39999962
v 131.70014954 98.41545868 6.19999981
v 131.73530579 98.35232544 6.19999981
v 131.73530579 98.35232544 18.39999962
v 131.76715088 98.2874527 18.39999962
v 131.76715088 98.2874527 6.19999981
v 131.79559326 98.22101593 6.19999981
v 131.79559326 98.22101593 18.39999962
v 131.82055664 98.15319824 18.39999962
v 131.82055664 98.15319824 6.19999981
v 131.84196472 98.08417511 18.39999962
v 131.84196472 98.08417511 6.19999981
v 131.85977173 98.01413727 6.19999981
v 131.85977173 98.01413727 18.39999962
v 131.87393188 97.94326782 18.39999962
v 131.87393188 97.94326782 6.19999981
v 131.88439941 97.87175751 6.19999981
v 131.88439941 97.87175751 18.39999962
v 131.8911438 97.79980469 6.19999981
v 131.8911438 97.79980469 18.39999962
v 131.89414978 97.7276001 18.39999962
v 131.89414978 97.7276001 6.19999981
v 131.8934021 97.65533447 6.19999981
v 131.8934021 97.65533447 18.39999962
v 131.88893127 97.58320618 18.39999962
v 131.88893127 97.58320618 6.19999981
v 131.88072205 97.51140594 6.19999981
v 131.88072205 97.51140594 18.39999962
v 131.86878967 97.44013214 6.19999981
v 131.86878967 97.44013214 18.39999962
v 131.85319519 97.36956787 18.39999962
v 131.85319519 97.36956787 6.19999981
v 131.83396912 97.29990387 6.19999981
v 131.83396912 97.29990387 18.39999962
v 131.81114197 97.23133087 18.39999962
v 131.81114197 97.23133087 6.19999981
v 131.7848053 97.16403961 6.19999981
v 131.7848053 97.16403961 18.39999962
v 131.75502014 97.09819794 18.39999962
v 131.75502014 97.09819794 6.19999981
v 131.72184753 97.03398895 6.19999981
v 131.72184753 97.03398895 18.39999962
v 131.68540955 96.97158051 18.39999962
v 131.68540955 96.97158051 6.19999981
v 131.64578247 96.91114807 18.39999962
v 131.64578247 96.91114807 6.19999981
v 131.60307312 96.85285187 18.39999962
v 131.60307312 96.85285187 6.19999981
v 131.55740356 96.79684448 6.19999981
v 131.55740356 96.79684448 18.39999962
v 131.50889587 96.7432785 6.19999981
v 131.50889587 96.7432785 18.39999962
v 131.45767212 96.69229126 18.39999962
v 131.45767212 96.69229126 6.19999981
v 131.40386963 96.64403534 18.39999962
v 131.40386963 96.64403534 6.19999981
v 131.34765625 96.59863281 18.39999962
v 131.34765625 96.59863281 6.19999981
v 131.28915405 96.55619812 6.19999981
v 131.28915405 96.55619812 18.39999962
v 131.22853088 96.51685333 18.39999962
v 131.22853088 96.51685333 6.19999981
v 125 92.70000458 18.39999962
v 125 92.70000458 6.19999981
v 118.77146149 96.51685333 18.39999962
v 118.77146149 96.51685333 6.19999981
v 118.71084595 96.55619812 18.39999962
v 118.71084595 96.55619812 6.19999981
v 118.65234375 96.59863281 18.39999962
v 118.65234375 96.59863281 6.19999981
v 118.59612274 96.64403534 6.19999981
v 118.59612274 96.64403534 18.39999962
v 118.54232788 96.69229126 18.39999962
v 118.54232788 96.69229126 6.19999981
v 118.49111176 96.7432785 6.19999981
v 118.49111176 96.7432785 18.39999962
v 118.44259644 96.79684448 6.19999981
v 118.44259644 96.79684448 18.39999962
v 118.39692688 96.85285187 18.39999962
v 118.39692688 96.85285187 6.19999981
v 118.35421753 96.91114807 18.39999962
v 118.35421753 96.91114807 6.19999981
v 118.31459045 96.97158051 18.39999962
v 118.31459045 96.97158051 6.19999981
v 118.27814484 97.03398895 18.39999962
v 118.27814484 97.03398895 6.19999981
v 118.24497986 97.09819794 18.39999962
v 118.24497986 97.09819794 6.19999981
v 118.2151947 97.16403961 18.39999962
v 118.2151947 97.16403961 6.19999981
v 118.1888504 97.23133087 6.19999981
v 118.1888504 97.23133087 18.39999962
v 118.16603851 97.29990387 18.39999962
v 118.16603851 97.29990387 6.19999981
v 118.14680481 97.36956787 18.39999962
v 118.14680481 97.36956787 6.19999981
v 118.1312027 97.44013214 18.39999962
v 118.1312027 97.44013214 6.19999981
v 118.11928558 97.51140594 6.19999981
v 118.11928558 97.51140594 18.39999962
v 118.11106873 97.58320618 18.39999962
v 118.11106873 97.58320618 6.19999981
v 118.10659027 97.65533447 18.39999962
v 118.10659027 97.65533447 6.19999981
v 118.10585022 97.7276001 18.39999962
v 118.10585022 97.7276001 6.19999981
v 118.10886383 97.79980469 6.19999981
v 118.10886383 97.79980469 18.39999962
v 118.11560822 97.87175751 18.39999962
v 118.11560822 97.87175751 6.19999981
v 118.12606812 97.94326782 6.19999981
v 118.12606812 97.94326782 18.39999962
v 118.14022064 98.01413727 18.39999962
v 118.14022064 98.01413727 6.19999981
v 118.15803528 98.08417511 18.39999962
v 118.15803528 98.08417511 6.19999981
v 118.17944336 98.15319824 6.19999981
v 118.17944336 98.15319824 18.39999962
v 118.20440674 98.22101593 18.39999962
v 118.20440674 98.22101593 6.19999981
v 118.23284149 98.2874527 6.19999981
v 118.23284149 98.2874527 18.39999962
v 118.26468658 98.35232544 6.19999981
v 118.26468658 98.35232544 18.39999962
v 118.29985046 98.41545868 18.39999962
v 118.29985046 98.41545868 6.19999981
v 118.33824158 98.4766922 6.19999981
v 118.33824158 98.4766922 18.39999962
v 118.37974548 98.53585052 18.39999962
v 118.37974548 98.53585052 6.19999981
v 118.424263 98.59278107 6.19999981
v 118.424263 98.59278107 18.39999962
v 118.47167206 98.64732361 6.19999981
v 118.47167206 98.64732361 18.39999962
v 118.52184296 98.69934082 18.39999962
v 118.52184296 98.69934082 6.19999981
v 118.57463837 98.74868774 6.19999981
v 118.57463837 98.74868774 18.39999962
v 118.62992859 98.79522705 6.19999981
v 118.62992859 98.79522705 18.39999962
v 118.68754578 98.8388443 18.39999962
v 118.68754578 98.8388443 6.19999981
v 118.7473526 98.87941742 18.39999962
v 118.7473526 98.87941742 6.19999981
v 118.80917358 98.9168396 18.39999962
v 118.80917358 98.9168396 6.19999981
v 118.87285614 98.95100403 18.39999962
v 118.87285614 98.95100403 6.19999981
v 118.93822479 98.98182678 18.39999962
v 118.93822479 98.98182678 6.19999981
v 119.00509644 99.00921631 6.19999981
v 119.00509644 99.00921631 18.39999962
v 119.07330322 99.03311157 18.39999962
v 119.07330322 99.03311157 6.19999981
v 119.14265442 99.05343628 6.19999981
v 119.14265442 99.05343628 18.39999962
v 119.21296692 99.07013702 6.19999981
v 119.21296692 99.07013702 18.39999962
v 119.28404236 99.08317566 18.39999962
v 119.28404236 99.08317566 6.19999981
v 119.35570526 99.09251404 18.39999962
v 119.35570526 99.09251404 6.19999981
v 119.42775726 99.09812927 18.39999962
v 119.42775726 99.09812927 6.19999981
v 119.5 99.1000061 6.19999981
v 119.5 99.1000061 18.39999962
vn -0 1 0
vn 1 0 0
vn 0.02597 0.99966 0
vn 0.07771 0.99698 0
vn 0.1292 0.99162 -0
vn 0.18044 0.98359 0
vn 0.23109 0.97293 -0
vn 0.28124 0.95964 -0
vn 0.33063 0.94376 0
vn 0.37899 0.9254 0
vn 0.42657 0.90445 0
vn 0.4727 0.88122 0
vn 0.5178 0.8555 0
vn 0.56145 0.82751 0
vn 0.60358 0.79731 -0
vn 0.64402 0.76501 0
vn 0.68284 0.73056 0
vn 0.71977 0.69422 0
vn 0.75474 0.65603 -0
vn 0.7877 0.61606 0
vn 0.81863 0.57433 0
vn 0.84725 0.53119 0
vn 0.87367 0.48651 -0
vn 0.89768 0.44066 0
vn 0.9193 0.39356 -0
vn 0.93844 0.34544 0
vn 0.95511 0.29624 0
vn 0.96917 0.24641 -0
vn 0.98062 0.19593 0
vn 0.98946 0.14483 -0
vn 0.99564 0.09332 -0
vn 0.99913 0.0416 0
vn 0.99995 -0.01035 0
vn 0.99808 -0.06187 0
vn 0.99353 -0.11359 0
vn 0.98627 -0.16512 0
vn 0.97644 -0.21579 0
vn 0.96396 -0.26604 0
vn 0.94881 -0.31585 0
vn 0.93122 -0.36446 0
vn 0.91111 -0.41216 0
vn 0.88844 -0.459 0
vn 0.86358 -0.50421 0
vn 0.83625 -0.54835 0
vn 0.80668 -0.59099 0
vn 0.77501 -0.63195 0
vn 0.74124 -0.67124 0
vn 0.70547 -0.70874 0
vn 0.66769 -0.74444 0
vn 0.62833 -0.77795 0
vn 0.58715 -0.80948 0
vn 0.5444 -0.83882 0
vn 0.5225 -0.85264 0
vn -0.5225 -0.85264 0
vn -0.54445 -0.83879 0
vn -0.58715 -0.80948 -0
vn -0.62828 -0.77799 0
vn -0.66774 -0.74439 -0
vn -0.70552 -0.70869 0
vn -0.74119 -0.6713 0
vn -0.77501 -0.63195 -0
vn -0.80668 -0.59099 -0
vn -0.83625 -0.54835 -0
vn -0.86353 -0.50429 -0
vn -0.88848 -0.45891 -0
vn -0.91111 -0.41216 -0
vn -0.93118 -0.36455 0
vn -0.94887 -0.31566 -0
vn -0.96394 -0.26614 -0
vn -0.97642 -0.21589 -0
vn -0.98631 -0.16491 0
vn -0.99352 -0.1137 -0
vn -0.99808 -0.06197 -0
vn -0.99995 -0.01024 -0
vn -0.99913 0.0417 0
vn -0.99564 0.09332 0
vn -0.98947 0.14473 0
vn -0.98064 0.19583 0
vn -0.96914 0.24651 0
vn -0.95511 0.29624 0
vn -0.93844 0.34544 0
vn -0.91934 0.39347 0
vn -0.89768 0.44066 0
vn -0.87363 0.48659 0
vn -0.84725 0.53119 0
vn -0.81863 0.57433 0
vn -0.78775 0.61599 0
vn -0.75474 0.65603 0
vn -0.71977 0.69422 0
vn -0.68284 0.73056 0
vn -0.64397 0.76505 0
vn -0.60358 0.79731 0
vn -0.56141 0.82754 0
vn -0.51785 0.85547 0
vn -0.47275 0.8812 0
vn -0.42649 0.90449 0
vn -0.37902 0.92539 0
vn -0.33063 0.94376 0
vn -0.28124 0.95964 0
vn -0.23109 0.97293 0
vn -0.18044 0.98359 0
vn -0.12922 0.99162 0
vn -0.0777 0.99698 0
vn -0.02597 0.99966 0
vn -1 0 -0
vn -0 -0 1
vn 0 0 -1
f 1//1 2//1 3//1
f 2//1 4//1 3//1
f 4//2 5//2 3//2
f 3//2 5//2 6//2
f 5//3 7//3 6//3
f 6//3 7//3 8//3
f 8//4 9//4 10//4
f 10//5 9//5 11//5
f 7//4 9//4 8//4
f 9//5 12//5 11//5
f 11//6 13//6 14//6
f 14//7 13//7 15//7
f 12//6 13//6 11//6
f 15//8 16//8 17//8
f 13//7 16//7 15//7
f 16//8 18//8 17//8
f 17//9 19//9 20//9
f 18//9 19//9 17//9
f 20//10 21//10 22//10
f 19//10 21//10 20//10
f 22//11 23//11 24//11
f 21//11 23//11 22//11
f 24//12 25//12 26//12
f 23//12 25//12 24//12
f 26//13 27//13 28//13
f 25//13 27//13 26//13
f 28//14 29//14 30//14
f 30//15 29//15 31//15
f 27//14 29//14 28//14
f 29//15 32//15 31//15
f 31//16 33//16 34//16
f 32//16 33//16 31//16
f 34//17 35//17 36//17
f 33//17 35//17 34//17
f 36//18 37//18 38//18
f 38//19 37//19 39//19
f 35//18 37//18 36//18
f 37//19 40//19 39//19
f 39//20 41//20 42//20
f 40//20 41//20 39//20
f 42//21 43//21 44//21
f 41//21 43//21 42//21
f 44//22 45//22 46//22
f 46//23 45//23 47//23
f 43//22 45//22 44//22
f 45//23 48//23 47//23
f 47//24 49//24 50//24
f 50//25 49//25 51//25
f 48//24 49//24 47//24
f 49//25 52//25 51//25
f 51//26 53//26 54//26
f 52//26 53//26 51//26
f 53//27 55//27 54//27
f 54//27 55//27 56//27
f 56//28 55//28 57//28
f 55//28 58//28 57//28
f 58//29 59//29 57//29
f 57//29 59//29 60//29
f 60//30 59//30 61//30
f 59//30 62//30 61//30
f 61//31 62//31 63//31
f 62//31 64//31 63//31
f 64//32 65//32 63//32
f 63//32 65//32 66//32
f 66//33 65//33 67//33
f 65//33 68//33 67//33
f 68//34 69//34 67//34
f 67//34 69//34 70//34
f 70//35 69//35 71//35
f 71//36 72//36 73//36
f 69//35 72//35 71//35
f 72//36 74//36 73//36
f 73//37 75//37 76//37
f 76//38 75//38 77//38
f 74//37 75//37 73//37
f 75//38 78//38 77//38
f 77//39 79//39 80//39
f 80//40 79//40 81//40
f 78//39 79//39 77//39
f 79//40 82//40 81//40
f 81//41 83//41 84//41
f 84//42 83//42 85//42
f 82//41 83//41 81//41
f 83//42 86//42 85//42
f 85//43 87//43 88//43
f 86//43 87//43 85//43
f 88//44 89//44 90//44
f 87//44 89//44 88//44
f 90//45 91//45 92//45
f 92//46 91//46 93//46
f 89//45 91//45 90//45
f 93//47 94//47 95//47
f 91//46 94//46 93//46
f 94//47 96//47 95//47
f 95//48 97//48 98//48
f 96//48 97//48 95//48
f 98//49 99//49 100//49
f 97//49 99//49 98//49
f 100//50 101//50 102//50
f 102//51 101//51 103//51
f 99//50 101//50 100//50
f 101//51 104//51 103//51
f 104//52 105//52 103//52
f 103//52 105//52 106//52
f 105//53 107//53 106//53
f 106//53 107//53 108//53
f 107//54 109//54 108//54
f 108//54 109//54 110//54
f 109//55 111//55 110//55
f 110//55 111//55 112//55
f 112//56 113//56 114//56
f 114//57 113//57 115//57
f 111//56 113//56 112//56
f 113//57 116//57 115//57
f 115//58 117//58 118//58
f 118//59 117//59 119//59
f 116//58 117//58 115//58
f 119//60 120//60 121//60
f 117//59 120//59 119//59
f 120//60 122//60 121//60
f 121//61 123//61 124//61
f 122//61 123//61 121//61
f 124//62 125//62 126//62
f 123//62 125//62 124//62
f 126//63 127//63 128//63
f 125//63 127//63 126//63
f 128//64 129//64 130//64
f 127//64 129//64 128//64
f 130//65 131//65 132//65
f 129//65 131//65 130//65
f 132//66 133//66 134//66
f 134//67 133//67 135//67
f 131//66 133//66 132//66
f 133//67 136//67 135//67
f 135//68 137//68 138//68
f 136//68 137//68 135//68
f 138//69 139//69 140//69
f 137//69 139//69 138//69
f 140//70 141//70 142//70
f 142//71 141//71 143//71
f 139//70 141//70 140//70
f 141//71 144//71 143//71
f 143//72 145//72 146//72
f 144//72 145//72 143//72
f 146//73 147//73 148//73
f 145//73 147//73 146//73
f 148//74 149//74 150//74
f 150//75 149//75 151//75
f 147//74 149//74 148//74
f 149//75 152//75 151//75
f 151//76 153//76 154//76
f 154//77 153//77 155//77
f 152//76 153//76 151//76
f 153//77 156//77 155//77
f 155//78 157//78 158//78
f 156//78 157//78 155//78
f 157//79 159//79 158//79
f 158//79 159//79 160//79
f 160//80 159//80 161//80
f 159//80 162//80 161//80
f 162//81 163//81 161//81
f 161//81 163//81 164//81
f 164//82 163//82 165//82
f 163//82 166//82 165//82
f 165//83 166//83 167//83
f 166//83 168//83 167//83
f 168//84 169//84 167//84
f 167//84 169//84 170//84
f 170//85 169//85 171//85
f 169//85 172//85 171//85
f 172//86 173//86 171//86
f 171//86 173//86 174//86
f 174//87 173//87 175//87
f 175//88 176//88 177//88
f 173//87 176//87 175//87
f 176//88 178//88 177//88
f 177//89 179//89 180//89
f 180//90 179//90 181//90
f 178//89 179//89 177//89
f 181//91 182//91 183//91
f 179//90 182//90 181//90
f 182//91 184//91 183//91
f 183//92 185//92 186//92
f 184//92 185//92 183//92
f 186//93 187//93 188//93
f 185//93 187//93 186//93
f 188//94 189//94 190//94
f 187//94 189//94 188//94
f 190//95 191//95 192//95
f 189//95 191//95 190//95
f 192//96 193//96 194//96
f 194//97 193//97 195//97
f 191//96 193//96 192//96
f 193//97 196//97 195//97
f 195//98 197//98 198//98
f 198//99 197//99 199//99
f 196//98 197//98 195//98
f 199//100 200//100 201//100
f 197//99 200//99 199//99
f 200//100 202//100 201//100
f 201//101 203//101 204//101
f 202//101 203//101 201//101
f 204//102 205//102 206//102
f 203//102 205//102 204//102
f 205//103 207//103 206//103
f 206//103 207//103 208//103
f 208//104 207//104 209//104
f 207//104 210//104 209//104
f 210//105 2//105 209//105
f 209//105 2//105 1//105
f 117//106 116//106 120//106
f 120//106 116//106 122//106
f 113//106 111//106 116//106
f 116//106 129//106 122//106
f 122//106 129//106 123//106
f 123//106 129//106 125//106
f 125//106 129//106 127//106
f 111//106 131//106 116//106
f 116//106 131//106 129//106
f 111//106 133//106 131//106
f 133//106 137//106 136//106
f 111//106 139//106 133//106
f 133//106 139//106 137//106
f 109//106 139//106 111//106
f 139//106 145//106 141//106
f 141//106 145//106 144//106
f 147//106 152//106 149//106
f 139//106 153//106 145//106
f 147//106 153//106 152//106
f 145//106 153//106 147//106
f 109//106 156//106 139//106
f 139//106 156//106 153//106
f 109//106 157//106 156//106
f 157//106 168//106 159//106
f 159//106 168//106 162//106
f 162//106 168//106 163//106
f 163//106 168//106 166//106
f 168//106 173//106 169//106
f 169//106 173//106 172//106
f 157//106 176//106 168//106
f 168//106 176//106 173//106
f 109//106 178//106 157//106
f 157//106 178//106 176//106
f 178//106 182//106 179//106
f 178//106 187//106 182//106
f 182//106 187//106 184//106
f 184//106 187//106 185//106
f 191//106 196//106 193//106
f 189//106 197//106 191//106
f 191//106 197//106 196//106
f 187//106 200//106 189//106
f 189//106 200//106 197//106
f 202//106 205//106 203//106
f 187//106 207//106 200//106
f 202//106 207//106 205//106
f 200//106 207//106 202//106
f 107//106 210//106 109//106
f 109//106 210//106 178//106
f 178//106 210//106 187//106
f 187//106 210//106 207//106
f 104//106 101//106 105//106
f 101//106 99//106 105//106
f 97//106 96//106 99//106
f 99//106 94//106 105//106
f 96//106 94//106 99//106
f 91//106 89//106 94//106
f 89//106 86//106 94//106
f 87//106 86//106 89//106
f 94//106 83//106 105//106
f 86//106 83//106 94//106
f 83//106 82//106 105//106
f 79//106 78//106 82//106
f 78//106 75//106 82//106
f 107//106 5//106 210//106
f 105//106 5//106 107//106
f 82//106 7//106 105//106
f 105//106 7//106 5//106
f 65//106 64//106 68//106
f 68//106 64//106 69//106
f 69//106 64//106 72//106
f 72//106 62//106 74//106
f 74//106 62//106 75//106
f 64//106 62//106 72//106
f 62//106 59//106 75//106
f 9//106 13//106 12//106
f 75//106 58//106 82//106
f 59//106 58//106 75//106
f 7//106 16//106 9//106
f 9//106 16//106 13//106
f 58//106 55//106 82//106
f 7//106 55//106 16//106
f 82//106 55//106 7//106
f 16//106 19//106 18//106
f 53//106 52//106 55//106
f 16//106 21//106 19//106
f 21//106 25//106 23//106
f 16//106 25//106 21//106
f 48//106 45//106 49//106
f 49//106 45//106 52//106
f 55//106 27//106 16//106
f 16//106 27//106 25//106
f 45//106 43//106 52//106
f 52//106 41//106 55//106
f 43//106 41//106 52//106
f 41//106 40//106 55//106
f 27//106 33//106 29//106
f 29//106 33//106 32//106
f 40//106 35//106 55//106
f 27//106 35//106 33//106
f 37//106 35//106 40//106
f 55//106 35//106 27//106
f 210//106 4//106 2//106
f 5//106 4//106 210//106
f 115//107 118//107 119//107
f 115//107 119//107 121//107
f 112//107 114//107 115//107
f 130//107 115//107 121//107
f 130//107 121//107 124//107
f 130//107 124//107 126//107
f 130//107 126//107 128//107
f 132//107 112//107 115//107
f 132//107 115//107 130//107
f 134//107 112//107 132//107
f 138//107 134//107 135//107
f 140//107 112//107 134//107
f 140//107 134//107 138//107
f 140//107 110//107 112//107
f 146//107 140//107 142//107
f 146//107 142//107 143//107
f 151//107 148//107 150//107
f 154//107 140//107 146//107
f 154//107 148//107 151//107
f 154//107 146//107 148//107
f 155//107 110//107 140//107
f 155//107 140//107 154//107
f 158//107 110//107 155//107
f 167//107 158//107 160//107
f 167//107 160//107 161//107
f 167//107 161//107 164//107
f 167//107 164//107 165//107
f 174//107 167//107 170//107
f 174//107 170//107 171//107
f 175//107 158//107 167//107
f 175//107 167//107 174//107
f 177//107 110//107 158//107
f 177//107 158//107 175//107
f 181//107 177//107 180//107
f 188//107 177//107 181//107
f 188//107 181//107 183//107
f 188//107 183//107 186//107
f 195//107 192//107 194//107
f 198//107 190//107 192//107
f 198//107 192//107 195//107
f 199//107 188//107 190//107
f 199//107 190//107 198//107
f 206//107 201//107 204//107
f 208//107 188//107 199//107
f 208//107 201//107 206//107
f 208//107 199//107 201//107
f 209//107 108//107 110//107
f 209//107 110//107 177//107
f 209//107 177//107 188//107
f 209//107 188//107 208//107
f 102//107 103//107 106//107
f 100//107 102//107 106//107
f 95//107 98//107 100//107
f 93//107 100//107 106//107
f 93//107 95//107 100//107
f 90//107 92//107 93//107
f 85//107 90//107 93//107
f 85//107 88//107 90//107
f 84//107 93//107 106//107
f 84//107 85//107 93//107
f 81//107 84//107 106//107
f 77//107 80//107 81//107
f 76//107 77//107 81//107
f 6//107 108//107 209//107
f 6//107 106//107 108//107
f 8//107 81//107 106//107
f 8//107 106//107 6//107
f 63//107 66//107 67//107
f 63//107 67//107 70//107
f 63//107 70//107 71//107
f 61//107 71//107 73//107
f 61//107 73//107 76//107
f 61//107 63//107 71//107
f 60//107 61//107 76//107
f 14//107 10//107 11//107
f 57//107 76//107 81//107
f 57//107 60//107 76//107
f 15//107 8//107 10//107
f 15//107 10//107 14//107
f 56//107 57//107 81//107
f 56//107 8//107 15//107
f 56//107 81//107 8//107
f 20//107 15//107 17//107
f 51//107 54//107 56//107
f 22//107 15//107 20//107
f 26//107 22//107 24//107
f 26//107 15//107 22//107
f 46//107 47//107 50//107
f 46//107 50//107 51//107
f 28//107 56//107 15//107
f 28//107 15//107 26//107
f 44//107 46//107 51//107
f 42//107 51//107 56//107
f 42//107 44//107 51//107
f 39//107 42//107 56//107
f 34//107 28//107 30//107
f 34//107 30//107 31//107
f 36//107 39//107 56//107
f 36//107 28//107 34//107
f 36//107 38//107 39//107
f 36//107 56//107 28//107
f 3//107 209//107 1//107
f 3//107 6//107 209//107
# Vertices: 210, normals: 107, texture coordinates: 0, faces: 416

