# File generated by ImageToStl.com - Free Image and 3D model conversion tools

o obj1
v 118.40000153 106.34000397 6.19999981
v 118.40000153 106.34000397 20.84000015
v 131.6000061 106.34000397 6.19999981
v 131.6000061 106.34000397 20.84000015
v 131.6000061 99.13999939 20.84000015
v 131.6000061 99.13999939 6.19999981
v 131.68669128 99.13775635 20.84000015
v 131.68669128 99.13775635 6.19999981
v 131.77314758 99.13101959 20.84000015
v 131.77314758 99.13101959 6.19999981
v 131.85914612 99.11981201 6.19999981
v 131.85914612 99.11981201 20.84000015
v 131.94444275 99.10416412 20.84000015
v 131.94444275 99.10416412 6.19999981
v 132.02882385 99.0841217 6.19999981
v 132.02882385 99.0841217 20.84000015
v 132.11204529 99.05973053 6.19999981
v 132.11204529 99.05973053 20.84000015
v 132.19387817 99.03106689 20.84000015
v 132.19387817 99.03106689 6.19999981
v 132.2741394 98.99819183 20.84000015
v 132.2741394 98.99819183 6.19999981
v 132.35256958 98.96120453 20.84000015
v 132.35256958 98.96120453 6.19999981
v 132.4289856 98.92020416 20.84000015
v 132.4289856 98.92020416 6.19999981
v 132.50317383 98.87530518 20.84000015
v 132.50317383 98.87530518 6.19999981
v 132.57495117 98.82661438 20.84000015
v 132.57495117 98.82661438 6.19999981
v 132.64408875 98.77427673 6.19999981
v 132.64408875 98.77427673 20.84000015
v 132.71043396 98.71842194 20.84000015
v 132.71043396 98.71842194 6.19999981
v 132.77378845 98.65920258 20.84000015
v 132.77378845 98.65920258 6.19999981
v 132.83398438 98.5967865 20.84000015
v 132.83398438 98.5967865 6.19999981
v 132.8908844 98.53133392 6.19999981
v 132.8908844 98.53133392 20.84000015
v 132.94430542 98.46302032 20.84000015
v 132.94430542 98.46302032 6.19999981
v 132.99411011 98.39202881 20.84000015
v 132.99411011 98.39202881 6.19999981
v 133.04017639 98.31855774 20.84000015
v 133.04017639 98.31855774 6.19999981
v 133.08236694 98.24279022 6.19999981
v 133.08236694 98.24279022 20.84000015
v 133.12059021 98.16493988 20.84000015
v 133.12059021 98.16493988 6.19999981
v 133.15470886 98.08522034 6.19999981
v 133.15470886 98.08522034 20.84000015
v 133.18466187 98.00383759 20.84000015
v 133.18466187 98.00383759 6.19999981
v 133.21035767 97.92100525 20.84000015
v 133.21035767 97.92100525 6.19999981
v 133.23173523 97.83695984 6.19999981
v 133.23173523 97.83695984 20.84000015
v 133.24871826 97.75191498 20.84000015
v 133.24871826 97.75191498 6.19999981
v 133.26127625 97.66610718 6.19999981
v 133.26127625 97.66610718 20.84000015
v 133.2693634 97.57976532 6.19999981
v 133.2693634 97.57976532 20.84000015
v 133.27297974 97.49311829 20.84000015
v 133.27297974 97.49311829 6.19999981
v 133.27209473 97.40640259 6.19999981
v 133.27209473 97.40640259 20.84000015
v 133.26670837 97.31984711 20.84000015
v 133.26670837 97.31984711 6.19999981
v 133.25686646 97.23368835 6.19999981
v 133.25686646 97.23368835 20.84000015
v 133.24255371 97.14815521 6.19999981
v 133.24255371 97.14815521 20.84000015
v 133.22383118 97.06347656 20.84000015
v 133.22383118 97.06347656 6.19999981
v 133.20075989 96.97988892 6.19999981
v 133.20075989 96.97988892 20.84000015
v 133.17337036 96.89759827 20.84000015
v 133.17337036 96.89759827 6.19999981
v 133.14176941 96.81684113 6.19999981
v 133.14176941 96.81684113 20.84000015
v 133.10601807 96.73783112 20.84000015
v 133.10601807 96.73783112 6.19999981
v 133.06622314 96.66078186 6.19999981
v 133.06622314 96.66078186 20.84000015
v 133.02249146 96.58589935 20.84000015
v 133.02249146 96.58589935 6.19999981
v 132.97492981 96.51337433 20.84000015
v 132.97492981 96.51337433 6.19999981
v 132.9236908 96.44342041 20.84000015
v 132.9236908 96.44342041 6.19999981
v 132.86888123 96.37620544 6.19999981
v 132.86888123 96.37620544 20.84000015
v 132.81066895 96.3119278 6.19999981
v 132.81066895 96.3119278 20.84000015
v 132.74920654 96.25075531 20.84000015
v 132.74920654 96.25075531 6.19999981
v 132.68464661 96.19284058 20.84000015
v 132.68464661 96.19284058 6.19999981
v 132.6171875 96.13835907 20.84000015
v 132.6171875 96.13835907 6.19999981
v 132.54698181 96.08744049 6.19999981
v 132.54698181 96.08744049 20.84000015
v 132.47424316 96.04022217 20.84000015
v 132.47424316 96.04022217 6.19999981
v 125 91.45999908 20.84000015
v 125 91.45999908 6.19999981
v 117.52575684 96.04022217 20.84000015
v 117.52575684 96.04022217 6.19999981
v 117.45301056 96.08744049 20.84000015
v 117.45301056 96.08744049 6.19999981
v 117.3828125 96.13835907 20.84000015
v 117.3828125 96.13835907 6.19999981
v 117.31534576 96.19284058 6.19999981
v 117.31534576 96.19284058 20.84000015
v 117.25079346 96.25075531 20.84000015
v 117.25079346 96.25075531 6.19999981
v 117.18933105 96.3119278 6.19999981
v 117.18933105 96.3119278 20.84000015
v 117.13111877 96.37620544 6.19999981
v 117.13111877 96.37620544 20.84000015
v 117.0763092 96.44342041 20.84000015
v 117.0763092 96.44342041 6.19999981
v 117.02506256 96.51337433 20.84000015
v 117.02506256 96.51337433 6.19999981
v 116.97750854 96.58589935 20.84000015
v 116.97750854 96.58589935 6.19999981
v 116.93377686 96.66078186 20.84000015
v 116.93377686 96.66078186 6.19999981
v 116.89398193 96.73783112 20.84000015
v 116.89398193 96.73783112 6.19999981
v 116.85823059 96.81684113 20.84000015
v 116.85823059 96.81684113 6.19999981
v 116.82662201 96.89759827 6.19999981
v 116.82662201 96.89759827 20.84000015
v 116.79924011 96.97988892 20.84000015
v 116.79924011 96.97988892 6.19999981
v 116.77616119 97.06347656 20.84000015
v 116.77616119 97.06347656 6.19999981
v 116.75744629 97.14815521 20.84000015
v 116.75744629 97.14815521 6.19999981
v 116.74314117 97.23368835 6.19999981
v 116.74314117 97.23368835 20.84000015
v 116.733284 97.31984711 20.84000015
v 116.733284 97.31984711 6.19999981
v 116.72790527 97.40640259 20.84000015
v 116.72790527 97.40640259 6.19999981
v 116.72702026 97.49311829 20.84000015
v 116.72702026 97.49311829 6.19999981
v 116.73062897 97.57976532 6.19999981
v 116.73062897 97.57976532 20.84000015
v 116.73872375 97.66610718 20.84000015
v 116.73872375 97.66610718 6.19999981
v 116.75128174 97.75191498 6.19999981
v 116.75128174 97.75191498 20.84000015
v 116.76826477 97.83695984 20.84000015
v 116.76826477 97.83695984 6.19999981
v 116.7896347 97.92100525 20.84000015
v 116.7896347 97.92100525 6.19999981
v 116.81533051 98.00383759 6.19999981
v 116.81533051 98.00383759 20.84000015
v 116.84528351 98.08522034 20.84000015
v 116.84528351 98.08522034 6.19999981
v 116.87941742 98.16493988 6.19999981
v 116.87941742 98.16493988 20.84000015
v 116.91762543 98.24279022 6.19999981
v 116.91762543 98.24279022 20.84000015
v 116.95982361 98.31855774 20.84000015
v 116.95982361 98.31855774 6.19999981
v 117.00588989 98.39202881 6.19999981
v 117.00588989 98.39202881 20.84000015
v 117.05569458 98.46302032 20.84000015
v 117.05569458 98.46302032 6.19999981
v 117.10912323 98.53133392 6.19999981
v 117.10912323 98.53133392 20.84000015
v 117.166008 98.5967865 6.19999981
v 117.166008 98.5967865 20.84000015
v 117.22621155 98.65920258 20.84000015
v 117.22621155 98.65920258 6.19999981
v 117.28956604 98.71842194 6.19999981
v 117.28956604 98.71842194 20.84000015
v 117.35591125 98.77427673 6.19999981
v 117.35591125 98.77427673 20.84000015
v 117.42505646 98.82661438 20.84000015
v 117.42505646 98.82661438 6.19999981
v 117.49681854 98.87530518 20.84000015
v 117.49681854 98.87530518 6.19999981
v 117.57100677 98.92020416 20.84000015
v 117.57100677 98.92020416 6.19999981
v 117.64743042 98.96120453 20.84000015
v 117.64743042 98.96120453 6.19999981
v 117.72586823 98.99819183 20.84000015
v 117.72586823 98.99819183 6.19999981
v 117.8061142 99.03106689 6.19999981
v 117.8061142 99.03106689 20.84000015
v 117.88796234 99.05973053 20.84000015
v 117.88796234 99.05973053 6.19999981
v 117.97118378 99.0841217 6.19999981
v 117.97118378 99.0841217 20.84000015
v 118.05555725 99.10416412 6.19999981
v 118.05555725 99.10416412 20.84000015
v 118.14085388 99.11981201 20.84000015
v 118.14085388 99.11981201 6.19999981
v 118.22684479 99.13101959 20.84000015
v 118.22684479 99.13101959 6.19999981
v 118.31330872 99.13775635 20.84000015
v 118.31330872 99.13775635 6.19999981
v 118.40000153 99.13999939 6.19999981
v 118.40000153 99.13999939 20.84000015
vn -0 1 0
vn 1 0 0
vn 0.02587 0.99967 0
vn 0.07769 0.99698 0
vn 0.12923 0.99161 -0
vn 0.18044 0.98359 0
vn 0.23109 0.97293 -0
vn 0.28126 0.95963 -0
vn 0.33058 0.94378 0
vn 0.37904 0.92538 0
vn 0.42654 0.90447 0
vn 0.47279 0.88118 0
vn 0.51777 0.85552 0
vn 0.56138 0.82756 0
vn 0.60357 0.79731 -0
vn 0.64404 0.765 0
vn 0.68286 0.73055 0
vn 0.71979 0.69419 0
vn 0.75469 0.65608 -0
vn 0.78774 0.61601 0
vn 0.81863 0.57432 0
vn 0.84724 0.53122 0
vn 0.87368 0.4865 -0
vn 0.89764 0.44073 0
vn 0.91934 0.39346 -0
vn 0.93846 0.3454 0
vn 0.9551 0.29629 0
vn 0.96914 0.24651 -0
vn 0.98064 0.19583 0
vn 0.98946 0.14481 -0
vn 0.99564 0.09326 -0
vn 0.99913 0.0417 0
vn 0.99995 -0.01021 0
vn 0.99807 -0.06211 0
vn 0.99354 -0.11349 0
vn 0.98629 -0.16504 0
vn 0.97642 -0.21589 0
vn 0.96396 -0.26606 0
vn 0.94882 -0.31581 0
vn 0.93124 -0.3644 0
vn 0.91107 -0.41225 0
vn 0.88849 -0.45889 0
vn 0.86353 -0.5043 0
vn 0.83622 -0.54839 0
vn 0.80674 -0.59091 0
vn 0.775 -0.63196 0
vn 0.74121 -0.67127 0
vn 0.70543 -0.70878 0
vn 0.66776 -0.74438 0
vn 0.6283 -0.77797 0
vn 0.58711 -0.8095 0
vn 0.54449 -0.83877 0
vn 0.5225 -0.85264 0
vn -0.5225 -0.85264 0
vn -0.54445 -0.8388 0
vn -0.58716 -0.80947 -0
vn -0.62826 -0.778 0
vn -0.6678 -0.74434 -0
vn -0.70543 -0.70878 0
vn -0.74121 -0.67127 0
vn -0.775 -0.63196 -0
vn -0.8067 -0.59097 -0
vn -0.83626 -0.54833 -0
vn -0.86353 -0.5043 -0
vn -0.88849 -0.45889 -0
vn -0.91107 -0.41225 -0
vn -0.93121 -0.36448 0
vn -0.94885 -0.31573 -0
vn -0.96393 -0.26615 -0
vn -0.97644 -0.2158 -0
vn -0.9863 -0.16496 0
vn -0.99352 -0.11367 -0
vn -0.99807 -0.06202 -0
vn -0.99995 -0.01021 -0
vn -0.99913 0.04161 0
vn -0.99563 0.09334 0
vn -0.98946 0.14481 0
vn -0.98064 0.19583 0
vn -0.96916 0.24643 0
vn -0.9551 0.29629 0
vn -0.93846 0.3454 0
vn -0.91928 0.39361 0
vn -0.89771 0.44059 0
vn -0.87364 0.48657 0
vn -0.84724 0.53122 0
vn -0.81863 0.57432 0
vn -0.7877 0.61606 0
vn -0.75478 0.65598 0
vn -0.71975 0.69423 0
vn -0.68286 0.73055 0
vn -0.64404 0.765 0
vn -0.60353 0.79734 0
vn -0.56146 0.8275 0
vn -0.51777 0.85552 0
vn -0.47275 0.8812 0
vn -0.42651 0.90448 0
vn -0.3791 0.92536 0
vn -0.33052 0.9438 0
vn -0.28126 0.95963 0
vn -0.23111 0.97293 0
vn -0.18044 0.98359 0
vn -0.12924 0.99161 0
vn -0.07768 0.99698 0
vn -0.02586 0.99967 0
vn -1 0 -0
vn -0 -0 1
vn 0 0 -1
f 1//1 2//1 3//1
f 2//1 4//1 3//1
f 4//2 5//2 3//2
f 3//2 5//2 6//2
f 5//3 7//3 6//3
f 6//3 7//3 8//3
f 8//4 9//4 10//4
f 10//5 9//5 11//5
f 7//4 9//4 8//4
f 9//5 12//5 11//5
f 11//6 13//6 14//6
f 14//7 13//7 15//7
f 12//6 13//6 11//6
f 15//8 16//8 17//8
f 13//7 16//7 15//7
f 16//8 18//8 17//8
f 17//9 19//9 20//9
f 18//9 19//9 17//9
f 20//10 21//10 22//10
f 19//10 21//10 20//10
f 22//11 23//11 24//11
f 21//11 23//11 22//11
f 24//12 25//12 26//12
f 23//12 25//12 24//12
f 26//13 27//13 28//13
f 25//13 27//13 26//13
f 28//14 29//14 30//14
f 30//15 29//15 31//15
f 27//14 29//14 28//14
f 29//15 32//15 31//15
f 31//16 33//16 34//16
f 32//16 33//16 31//16
f 34//17 35//17 36//17
f 33//17 35//17 34//17
f 36//18 37//18 38//18
f 38//19 37//19 39//19
f 35//18 37//18 36//18
f 37//19 40//19 39//19
f 39//20 41//20 42//20
f 40//20 41//20 39//20
f 42//21 43//21 44//21
f 41//21 43//21 42//21
f 44//22 45//22 46//22
f 46//23 45//23 47//23
f 43//22 45//22 44//22
f 45//23 48//23 47//23
f 47//24 49//24 50//24
f 50//25 49//25 51//25
f 48//24 49//24 47//24
f 49//25 52//25 51//25
f 51//26 53//26 54//26
f 52//26 53//26 51//26
f 53//27 55//27 54//27
f 54//27 55//27 56//27
f 56//28 55//28 57//28
f 55//28 58//28 57//28
f 58//29 59//29 57//29
f 57//29 59//29 60//29
f 60//30 59//30 61//30
f 59//30 62//30 61//30
f 61//31 62//31 63//31
f 62//31 64//31 63//31
f 64//32 65//32 63//32
f 63//32 65//32 66//32
f 66//33 65//33 67//33
f 65//33 68//33 67//33
f 68//34 69//34 67//34
f 67//34 69//34 70//34
f 70//35 69//35 71//35
f 71//36 72//36 73//36
f 69//35 72//35 71//35
f 72//36 74//36 73//36
f 73//37 75//37 76//37
f 76//38 75//38 77//38
f 74//37 75//37 73//37
f 75//38 78//38 77//38
f 77//39 79//39 80//39
f 80//40 79//40 81//40
f 78//39 79//39 77//39
f 79//40 82//40 81//40
f 81//41 83//41 84//41
f 84//42 83//42 85//42
f 82//41 83//41 81//41
f 83//42 86//42 85//42
f 85//43 87//43 88//43
f 86//43 87//43 85//43
f 88//44 89//44 90//44
f 87//44 89//44 88//44
f 90//45 91//45 92//45
f 92//46 91//46 93//46
f 89//45 91//45 90//45
f 93//47 94//47 95//47
f 91//46 94//46 93//46
f 94//47 96//47 95//47
f 95//48 97//48 98//48
f 96//48 97//48 95//48
f 98//49 99//49 100//49
f 97//49 99//49 98//49
f 100//50 101//50 102//50
f 102//51 101//51 103//51
f 99//50 101//50 100//50
f 101//51 104//51 103//51
f 104//52 105//52 103//52
f 103//52 105//52 106//52
f 105//53 107//53 106//53
f 106//53 107//53 108//53
f 107//54 109//54 108//54
f 108//54 109//54 110//54
f 109//55 111//55 110//55
f 110//55 111//55 112//55
f 112//56 113//56 114//56
f 114//57 113//57 115//57
f 111//56 113//56 112//56
f 113//57 116//57 115//57
f 115//58 117//58 118//58
f 118//59 117//59 119//59
f 116//58 117//58 115//58
f 119//60 120//60 121//60
f 117//59 120//59 119//59
f 120//60 122//60 121//60
f 121//61 123//61 124//61
f 122//61 123//61 121//61
f 124//62 125//62 126//62
f 123//62 125//62 124//62
f 126//63 127//63 128//63
f 125//63 127//63 126//63
f 128//64 129//64 130//64
f 127//64 129//64 128//64
f 130//65 131//65 132//65
f 129//65 131//65 130//65
f 132//66 133//66 134//66
f 134//67 133//67 135//67
f 131//66 133//66 132//66
f 133//67 136//67 135//67
f 135//68 137//68 138//68
f 136//68 137//68 135//68
f 138//69 139//69 140//69
f 137//69 139//69 138//69
f 140//70 141//70 142//70
f 142//71 141//71 143//71
f 139//70 141//70 140//70
f 141//71 144//71 143//71
f 143//72 145//72 146//72
f 144//72 145//72 143//72
f 146//73 147//73 148//73
f 145//73 147//73 146//73
f 148//74 149//74 150//74
f 150//75 149//75 151//75
f 147//74 149//74 148//74
f 149//75 152//75 151//75
f 151//76 153//76 154//76
f 154//77 153//77 155//77
f 152//76 153//76 151//76
f 153//77 156//77 155//77
f 155//78 157//78 158//78
f 156//78 157//78 155//78
f 157//79 159//79 158//79
f 158//79 159//79 160//79
f 160//80 159//80 161//80
f 159//80 162//80 161//80
f 162//81 163//81 161//81
f 161//81 163//81 164//81
f 164//82 163//82 165//82
f 163//82 166//82 165//82
f 165//83 166//83 167//83
f 166//83 168//83 167//83
f 168//84 169//84 167//84
f 167//84 169//84 170//84
f 170//85 169//85 171//85
f 169//85 172//85 171//85
f 172//86 173//86 171//86
f 171//86 173//86 174//86
f 174//87 173//87 175//87
f 175//88 176//88 177//88
f 173//87 176//87 175//87
f 176//88 178//88 177//88
f 177//89 179//89 180//89
f 180//90 179//90 181//90
f 178//89 179//89 177//89
f 181//91 182//91 183//91
f 179//90 182//90 181//90
f 182//91 184//91 183//91
f 183//92 185//92 186//92
f 184//92 185//92 183//92
f 186//93 187//93 188//93
f 185//93 187//93 186//93
f 188//94 189//94 190//94
f 187//94 189//94 188//94
f 190//95 191//95 192//95
f 189//95 191//95 190//95
f 192//96 193//96 194//96
f 194//97 193//97 195//97
f 191//96 193//96 192//96
f 193//97 196//97 195//97
f 195//98 197//98 198//98
f 198//99 197//99 199//99
f 196//98 197//98 195//98
f 199//100 200//100 201//100
f 197//99 200//99 199//99
f 200//100 202//100 201//100
f 201//101 203//101 204//101
f 202//101 203//101 201//101
f 204//102 205//102 206//102
f 203//102 205//102 204//102
f 205//103 207//103 206//103
f 206//103 207//103 208//103
f 208//104 207//104 209//104
f 207//104 210//104 209//104
f 210//105 2//105 209//105
f 209//105 2//105 1//105
f 117//106 116//106 120//106
f 120//106 116//106 122//106
f 113//106 111//106 116//106
f 116//106 129//106 122//106
f 122//106 129//106 123//106
f 123//106 129//106 125//106
f 125//106 129//106 127//106
f 111//106 131//106 116//106
f 116//106 131//106 129//106
f 111//106 133//106 131//106
f 133//106 137//106 136//106
f 111//106 139//106 133//106
f 133//106 139//106 137//106
f 109//106 139//106 111//106
f 139//106 145//106 141//106
f 141//106 145//106 144//106
f 147//106 152//106 149//106
f 139//106 153//106 145//106
f 147//106 153//106 152//106
f 145//106 153//106 147//106
f 109//106 156//106 139//106
f 139//106 156//106 153//106
f 109//106 157//106 156//106
f 157//106 168//106 159//106
f 159//106 168//106 162//106
f 162//106 168//106 163//106
f 163//106 168//106 166//106
f 168//106 173//106 169//106
f 169//106 173//106 172//106
f 157//106 176//106 168//106
f 168//106 176//106 173//106
f 109//106 178//106 157//106
f 157//106 178//106 176//106
f 178//106 182//106 179//106
f 178//106 187//106 182//106
f 182//106 187//106 184//106
f 184//106 187//106 185//106
f 191//106 196//106 193//106
f 189//106 197//106 191//106
f 191//106 197//106 196//106
f 187//106 200//106 189//106
f 189//106 200//106 197//106
f 202//106 205//106 203//106
f 187//106 207//106 200//106
f 202//106 207//106 205//106
f 200//106 207//106 202//106
f 107//106 210//106 109//106
f 109//106 210//106 178//106
f 178//106 210//106 187//106
f 187//106 210//106 207//106
f 104//106 101//106 105//106
f 101//106 99//106 105//106
f 97//106 96//106 99//106
f 99//106 94//106 105//106
f 96//106 94//106 99//106
f 91//106 89//106 94//106
f 89//106 86//106 94//106
f 87//106 86//106 89//106
f 94//106 83//106 105//106
f 86//106 83//106 94//106
f 83//106 82//106 105//106
f 79//106 78//106 82//106
f 78//106 75//106 82//106
f 107//106 5//106 210//106
f 105//106 5//106 107//106
f 82//106 7//106 105//106
f 105//106 7//106 5//106
f 65//106 64//106 68//106
f 68//106 64//106 69//106
f 69//106 64//106 72//106
f 72//106 62//106 74//106
f 74//106 62//106 75//106
f 64//106 62//106 72//106
f 62//106 59//106 75//106
f 9//106 13//106 12//106
f 75//106 58//106 82//106
f 59//106 58//106 75//106
f 7//106 16//106 9//106
f 9//106 16//106 13//106
f 58//106 55//106 82//106
f 7//106 55//106 16//106
f 82//106 55//106 7//106
f 16//106 19//106 18//106
f 53//106 52//106 55//106
f 16//106 21//106 19//106
f 21//106 25//106 23//106
f 16//106 25//106 21//106
f 48//106 45//106 49//106
f 49//106 45//106 52//106
f 55//106 27//106 16//106
f 16//106 27//106 25//106
f 45//106 43//106 52//106
f 52//106 41//106 55//106
f 43//106 41//106 52//106
f 41//106 40//106 55//106
f 27//106 33//106 29//106
f 29//106 33//106 32//106
f 40//106 35//106 55//106
f 27//106 35//106 33//106
f 37//106 35//106 40//106
f 55//106 35//106 27//106
f 210//106 4//106 2//106
f 5//106 4//106 210//106
f 115//107 118//107 119//107
f 115//107 119//107 121//107
f 112//107 114//107 115//107
f 130//107 115//107 121//107
f 130//107 121//107 124//107
f 130//107 124//107 126//107
f 130//107 126//107 128//107
f 132//107 112//107 115//107
f 132//107 115//107 130//107
f 134//107 112//107 132//107
f 138//107 134//107 135//107
f 140//107 112//107 134//107
f 140//107 134//107 138//107
f 140//107 110//107 112//107
f 146//107 140//107 142//107
f 146//107 142//107 143//107
f 151//107 148//107 150//107
f 154//107 140//107 146//107
f 154//107 148//107 151//107
f 154//107 146//107 148//107
f 155//107 110//107 140//107
f 155//107 140//107 154//107
f 158//107 110//107 155//107
f 167//107 158//107 160//107
f 167//107 160//107 161//107
f 167//107 161//107 164//107
f 167//107 164//107 165//107
f 174//107 167//107 170//107
f 174//107 170//107 171//107
f 175//107 158//107 167//107
f 175//107 167//107 174//107
f 177//107 110//107 158//107
f 177//107 158//107 175//107
f 181//107 177//107 180//107
f 188//107 177//107 181//107
f 188//107 181//107 183//107
f 188//107 183//107 186//107
f 195//107 192//107 194//107
f 198//107 190//107 192//107
f 198//107 192//107 195//107
f 199//107 188//107 190//107
f 199//107 190//107 198//107
f 206//107 201//107 204//107
f 208//107 188//107 199//107
f 208//107 201//107 206//107
f 208//107 199//107 201//107
f 209//107 108//107 110//107
f 209//107 110//107 177//107
f 209//107 177//107 188//107
f 209//107 188//107 208//107
f 102//107 103//107 106//107
f 100//107 102//107 106//107
f 95//107 98//107 100//107
f 93//107 100//107 106//107
f 93//107 95//107 100//107
f 90//107 92//107 93//107
f 85//107 90//107 93//107
f 85//107 88//107 90//107
f 84//107 93//107 106//107
f 84//107 85//107 93//107
f 81//107 84//107 106//107
f 77//107 80//107 81//107
f 76//107 77//107 81//107
f 6//107 108//107 209//107
f 6//107 106//107 108//107
f 8//107 81//107 106//107
f 8//107 106//107 6//107
f 63//107 66//107 67//107
f 63//107 67//107 70//107
f 63//107 70//107 71//107
f 61//107 71//107 73//107
f 61//107 73//107 76//107
f 61//107 63//107 71//107
f 60//107 61//107 76//107
f 14//107 10//107 11//107
f 57//107 76//107 81//107
f 57//107 60//107 76//107
f 15//107 8//107 10//107
f 15//107 10//107 14//107
f 56//107 57//107 81//107
f 56//107 8//107 15//107
f 56//107 81//107 8//107
f 20//107 15//107 17//107
f 51//107 54//107 56//107
f 22//107 15//107 20//107
f 26//107 22//107 24//107
f 26//107 15//107 22//107
f 46//107 47//107 50//107
f 46//107 50//107 51//107
f 28//107 56//107 15//107
f 28//107 15//107 26//107
f 44//107 46//107 51//107
f 42//107 51//107 56//107
f 42//107 44//107 51//107
f 39//107 42//107 56//107
f 34//107 28//107 30//107
f 34//107 30//107 31//107
f 36//107 39//107 56//107
f 36//107 28//107 34//107
f 36//107 38//107 39//107
f 36//107 56//107 28//107
f 3//107 209//107 1//107
f 3//107 6//107 209//107
# Vertices: 210, normals: 107, texture coordinates: 0, faces: 416

