# This file is brought to you by Roblox Corporation
# Generated by Roblox Studio

mtllib aa123.mtl

g Coinlow1

v -0.126269 1.4389 2.14509 
v 0.12627 2.15026 1.43117 
v -0.126269 2.15026 1.43117 
v 0.126269 1.4389 2.14509 
v -0.126269 0.508477 2.53245 
v 0.126269 0.508477 2.53245 
v -0.126269 -0.499355 2.53427 
v 0.126269 -0.499355 2.53427 
v -0.12627 -1.43117 2.15026 
v 0.126269 -1.43117 2.15026 
v -0.126269 2.53427 0.499356 
v 0.12627 2.53245 -0.508477 
v -0.126269 2.53245 -0.508477 
v 0.12627 2.14509 -1.4389 
v 0.12627 2.53427 0.499356 
v -0.126269 2.15026 1.43117 
v 0.12627 2.15026 1.43117 
v -0.126269 2.14509 -1.4389 
v 0.12627 1.43117 -2.15026 
v -0.126269 1.43117 -2.15026 
v -0.12627 -2.14509 1.4389 
v 0.126269 -1.43117 2.15026 
v -0.12627 -1.43117 2.15026 
v 0.126269 -2.14509 1.4389 
v -0.12627 -2.53245 0.508477 
v 0.126269 -2.53245 0.508477 
v -0.12627 -2.53427 -0.499356 
v 0.126269 -2.53427 -0.499356 
v -0.12627 -2.15026 -1.43117 
v 0.126269 -2.15026 -1.43117 
v -0.126269 -1.4389 -2.14509 
v 0.126269 -2.15026 -1.43117 
v -0.12627 -2.15026 -1.43117 
v 0.126269 -1.4389 -2.14509 
v -0.126269 -0.508477 -2.53245 
v 0.126269 -0.508477 -2.53245 
v -0.126269 0.499356 -2.53427 
v 0.126269 0.499356 -2.53427 
v -0.126269 1.43117 -2.15026 
v 0.12627 1.43117 -2.15026 
v -0.126269 0.499356 -2.53427 
v -0.126269 1.4389 2.14509 
v -0.126269 2.53427 0.499356 
v -0.126269 2.15026 1.43117 
v -0.126269 2.53245 -0.508477 
v -0.126269 2.14509 -1.4389 
v -0.126269 1.43117 -2.15026 
v -0.12627 -2.53427 -0.499356 
v -0.12627 -2.15026 -1.43117 
v -0.126269 -0.508477 -2.53245 
v -0.126269 -1.4389 -2.14509 
v -0.12627 -1.43117 2.15026 
v -0.126269 0.508477 2.53245 
v -0.126269 -0.499355 2.53427 
v -0.12627 -2.14509 1.4389 
v -0.12627 -2.53245 0.508477 
v 0.126269 1.4389 2.14509 
v 0.126269 0.499356 -2.53427 
v 0.12627 2.53427 0.499356 
v 0.12627 2.15026 1.43117 
v 0.12627 2.53245 -0.508477 
v 0.12627 2.14509 -1.4389 
v 0.12627 1.43117 -2.15026 
v 0.126269 -2.53427 -0.499356 
v 0.126269 -2.15026 -1.43117 
v 0.126269 -0.508477 -2.53245 
v 0.126269 -1.4389 -2.14509 
v 0.126269 -1.43117 2.15026 
v 0.126269 0.508477 2.53245 
v 0.126269 -0.499355 2.53427 
v 0.126269 -2.14509 1.4389 
v 0.126269 -2.53245 0.508477 

vn 0 0.559055 0.826772 
vn 0 0.834646 0.551181 
vn 0 0.834646 0.551181 
vn 0 0.559055 0.826772 
vn 0 0.19685 0.984252 
vn 0 0.19685 0.984252 
vn 0 -0.19685 0.984252 
vn 0 -0.19685 0.984252 
vn 0 -0.551181 0.834646 
vn 0 -0.551181 0.834646 
vn 0 0.984252 0.19685 
vn 0 0.984252 -0.19685 
vn 0 0.984252 -0.19685 
vn 0 0.826772 -0.559055 
vn 0 0.984252 0.19685 
vn 0 0.834646 0.551181 
vn 0 0.834646 0.551181 
vn 0 0.826772 -0.559055 
vn 0 0.551181 -0.834646 
vn 0 0.551181 -0.834646 
vn 0 -0.826772 0.559055 
vn 0 -0.551181 0.834646 
vn 0 -0.551181 0.834646 
vn 0 -0.826772 0.559055 
vn 0 -0.984252 0.19685 
vn 0 -0.984252 0.19685 
vn 0 -0.984252 -0.19685 
vn 0 -0.984252 -0.19685 
vn 0 -0.834646 -0.551181 
vn 0 -0.834646 -0.551181 
vn 0 -0.559055 -0.826772 
vn 0 -0.834646 -0.551181 
vn 0 -0.834646 -0.551181 
vn 0 -0.559055 -0.826772 
vn 0 -0.19685 -0.984252 
vn 0 -0.19685 -0.984252 
vn 0 0.19685 -0.984252 
vn 0 0.19685 -0.984252 
vn 0 0.551181 -0.834646 
vn 0 0.551181 -0.834646 
vn -1 0 0 
vn -1 0 0 
vn -1 0 0 
vn -1 0 0 
vn -1 0 0 
vn -1 0 0 
vn -1 0 0 
vn -1 0 0 
vn -1 0 0 
vn -1 0 0 
vn -1 0 0 
vn -1 0 0 
vn -1 0 0 
vn -1 0 0 
vn -1 0 0 
vn -1 0 0 
vn 1 0 0 
vn 1 0 0 
vn 1 0 0 
vn 1 0 0 
vn 1 0 0 
vn 1 0 0 
vn 1 0 0 
vn 1 0 0 
vn 1 0 0 
vn 1 0 0 
vn 1 0 0 
vn 1 0 0 
vn 1 0 0 
vn 1 0 0 
vn 1 0 0 
vn 1 0 0 

vt 0.0504589 0.777771 
vt 0.0753674 0.860423 
vt 0.0504589 0.860423 
vt 0.0753674 0.777771 
vt 0.0504589 0.680276 
vt 0.0753674 0.680276 
vt 0.0504589 0.582781 
vt 0.0753674 0.582781 
vt 0.0504589 0.500128 
vt 0.0753674 0.500129 
vt 0.0504589 0.777771 
vt 0.0753674 0.680276 
vt 0.0504589 0.680276 
vt 0.0753674 0.582781 
vt 0.0753674 0.777771 
vt 0.0504589 0.860423 
vt 0.0753674 0.860423 
vt 0.0504589 0.582781 
vt 0.0753674 0.500128 
vt 0.0504589 0.500128 
vt 0.000128374 0.777771 
vt 0.0250369 0.860423 
vt 0.000128374 0.860423 
vt 0.0250369 0.777771 
vt 0.000128374 0.680276 
vt 0.0250369 0.680276 
vt 0.000128374 0.582781 
vt 0.0250369 0.582781 
vt 0.000128374 0.500128 
vt 0.0250369 0.500129 
vt 0.0252936 0.582781 
vt 0.0502021 0.500129 
vt 0.0252936 0.500128 
vt 0.0502021 0.582781 
vt 0.0252936 0.680276 
vt 0.0502021 0.680276 
vt 0.0252936 0.777771 
vt 0.0502021 0.777771 
vt 0.0252936 0.860423 
vt 0.0502021 0.860423 
vt 0.299703 0.499872 
vt 0.391541 0.0381691 
vt 0.499872 0.200297 
vt 0.461831 0.108459 
vt 0.499872 0.299703 
vt 0.461831 0.391541 
vt 0.391541 0.461831 
vt 0.000128388 0.299703 
vt 0.0381691 0.391541 
vt 0.200297 0.499872 
vt 0.108459 0.461831 
vt 0.108459 0.038169 
vt 0.299703 0.000128388 
vt 0.200297 0.000128388 
vt 0.0381691 0.108459 
vt 0.000128388 0.200297 
vt 0.891541 0.0381691 
vt 0.799703 0.499872 
vt 0.999872 0.200297 
vt 0.961831 0.108459 
vt 0.999872 0.299703 
vt 0.961831 0.391541 
vt 0.891541 0.461831 
vt 0.500128 0.299703 
vt 0.538169 0.391541 
vt 0.700297 0.499872 
vt 0.608459 0.461831 
vt 0.608459 0.038169 
vt 0.799703 0.000128388 
vt 0.700297 0.000128388 
vt 0.538169 0.108459 
vt 0.500128 0.200297 

usemtl Coinlow1Mtl

f 1/1/1 2/2/2 3/3/3 
f 2/2/2 1/1/1 4/4/4 
f 5/5/5 4/4/4 1/1/1 
f 4/4/4 5/5/5 6/6/6 
f 7/7/7 6/6/6 5/5/5 
f 6/6/6 7/7/7 8/8/8 
f 9/9/9 8/8/8 7/7/7 
f 8/8/8 9/9/9 10/10/10 
f 11/11/11 12/12/12 13/13/13 
f 14/14/14 13/13/13 12/12/12 
f 12/12/12 11/11/11 15/15/15 
f 16/16/16 15/15/15 11/11/11 
f 15/15/15 16/16/16 17/17/17 
f 13/13/13 14/14/14 18/18/18 
f 19/19/19 18/18/18 14/14/14 
f 18/18/18 19/19/19 20/20/20 
f 21/21/21 22/22/22 23/23/23 
f 22/22/22 21/21/21 24/24/24 
f 25/25/25 24/24/24 21/21/21 
f 24/24/24 25/25/25 26/26/26 
f 27/27/27 26/26/26 25/25/25 
f 26/26/26 27/27/27 28/28/28 
f 29/29/29 28/28/28 27/27/27 
f 28/28/28 29/29/29 30/30/30 
f 31/31/31 32/32/32 33/33/33 
f 32/32/32 31/31/31 34/34/34 
f 35/35/35 34/34/34 31/31/31 
f 34/34/34 35/35/35 36/36/36 
f 37/37/37 36/36/36 35/35/35 
f 36/36/36 37/37/37 38/38/38 
f 39/39/39 38/38/38 37/37/37 
f 38/38/38 39/39/39 40/40/40 
f 41/41/41 42/42/42 43/43/43 
f 43/43/43 42/42/42 44/44/44 
f 41/41/41 43/43/43 45/45/45 
f 46/46/46 41/41/41 45/45/45 
f 41/41/41 46/46/46 47/47/47 
f 42/42/42 41/41/41 48/48/48 
f 48/48/48 41/41/41 49/49/49 
f 49/49/49 41/41/41 50/50/50 
f 49/49/49 50/50/50 51/51/51 
f 42/42/42 48/48/48 52/52/52 
f 42/42/42 52/52/52 53/53/53 
f 53/53/53 52/52/52 54/54/54 
f 52/52/52 48/48/48 55/55/55 
f 55/55/55 48/48/48 56/56/56 
f 57/57/57 58/58/58 59/59/59 
f 57/57/57 59/59/59 60/60/60 
f 59/59/59 58/58/58 61/61/61 
f 61/61/61 58/58/58 62/62/62 
f 62/62/62 58/58/58 63/63/63 
f 58/58/58 57/57/57 64/64/64 
f 65/65/65 58/58/58 64/64/64 
f 58/58/58 65/65/65 66/66/66 
f 66/66/66 65/65/65 67/67/67 
f 64/64/64 57/57/57 68/68/68 
f 69/69/69 68/68/68 57/57/57 
f 68/68/68 69/69/69 70/70/70 
f 64/64/64 68/68/68 71/71/71 
f 64/64/64 71/71/71 72/72/72 

